<svg width="40" height="41" viewBox="0 0 40 41" fill="none" xmlns="http://www.w3.org/2000/svg">
<g clip-path="url(#clip0)">
<path d="M0 4.5C0 2.29086 1.79086 0.5 4 0.5H36C38.2091 0.5 40 2.29086 40 4.5V36.5C40 38.7091 38.2091 40.5 36 40.5H4C1.79086 40.5 0 38.7091 0 36.5V4.5Z" fill="#BDBDBD"/>
<rect y="0.5" width="40" height="40" fill="#BDBDBD"/>
</g>
<path d="M18.7972 21.4355C18.7972 23.5514 18.4359 25.1237 17.7132 26.1523C16.9905 27.181 15.861 27.6953 14.3245 27.6953C12.8076 27.6953 11.6846 27.194 10.9554 26.1914C10.2262 25.1823 9.84862 23.6784 9.82258 21.6797V19.2676C9.82258 17.1777 10.1839 15.625 10.9066 14.6094C11.6292 13.5938 12.762 13.0859 14.305 13.0859C15.8349 13.0859 16.9613 13.5775 17.6839 14.5605C18.4066 15.5371 18.7777 17.0475 18.7972 19.0918V21.4355ZM16.9905 18.9648C16.9905 17.4349 16.7757 16.3216 16.346 15.625C15.9163 14.9219 15.236 14.5703 14.305 14.5703C13.3805 14.5703 12.7067 14.9186 12.2835 15.6152C11.8603 16.3118 11.6422 17.3828 11.6292 18.8281V21.7188C11.6292 23.2552 11.8506 24.3913 12.2933 25.127C12.7425 25.8561 13.4196 26.2207 14.3245 26.2207C15.2165 26.2207 15.8773 25.8757 16.307 25.1855C16.7432 24.4954 16.971 23.4082 16.9905 21.9238V18.9648ZM27.1891 27.5H25.3727V15.459L21.7302 16.7969V15.1562L26.9059 13.2129H27.1891V27.5Z" fill="white"/>
<defs>
<clipPath id="clip0">
<path d="M0 4.5C0 2.29086 1.79086 0.5 4 0.5H36C38.2091 0.5 40 2.29086 40 4.5V36.5C40 38.7091 38.2091 40.5 36 40.5H4C1.79086 40.5 0 38.7091 0 36.5V4.5Z" fill="white"/>
</clipPath>
</defs>
</svg>
