<svg width="40" height="40" viewBox="0 0 40 40" fill="none" xmlns="http://www.w3.org/2000/svg">
<circle cx="20" cy="20" r="20" fill="#4F4F4F"/>
<path d="M15.8187 27H14.0023V14.959L10.3597 16.2969V14.6562L15.5355 12.7129H15.8187V27ZM30.1677 20.9355C30.1677 23.0514 29.8063 24.6237 29.0837 25.6523C28.361 26.681 27.2315 27.1953 25.695 27.1953C24.1781 27.1953 23.055 26.694 22.3259 25.6914C21.5967 24.6823 21.2191 23.1784 21.193 21.1797V18.7676C21.193 16.6777 21.5544 15.125 22.277 14.1094C22.9997 13.0938 24.1325 12.5859 25.6755 12.5859C27.2054 12.5859 28.3317 13.0775 29.0544 14.0605C29.777 15.0371 30.1481 16.5475 30.1677 18.5918V20.9355ZM28.361 18.4648C28.361 16.9349 28.1462 15.8216 27.7165 15.125C27.2868 14.4219 26.6065 14.0703 25.6755 14.0703C24.751 14.0703 24.0772 14.4186 23.654 15.1152C23.2308 15.8118 23.0127 16.8828 22.9997 18.3281V21.2188C22.9997 22.7552 23.221 23.8913 23.6638 24.627C24.113 25.3561 24.7901 25.7207 25.695 25.7207C26.5869 25.7207 27.2477 25.3757 27.6774 24.6855C28.1136 23.9954 28.3415 22.9082 28.361 21.4238V18.4648Z" fill="white"/>
</svg>
