<svg width="40" height="40" viewBox="0 0 40 40" fill="none" xmlns="http://www.w3.org/2000/svg">
<circle cx="20" cy="20" r="20" fill="#4F4F4F"/>
<path d="M18.7972 20.9355C18.7972 23.0514 18.4359 24.6237 17.7132 25.6523C16.9905 26.681 15.861 27.1953 14.3245 27.1953C12.8076 27.1953 11.6846 26.694 10.9554 25.6914C10.2262 24.6823 9.84862 23.1784 9.82258 21.1797V18.7676C9.82258 16.6777 10.1839 15.125 10.9066 14.1094C11.6292 13.0938 12.762 12.5859 14.305 12.5859C15.8349 12.5859 16.9613 13.0775 17.6839 14.0605C18.4066 15.0371 18.7777 16.5475 18.7972 18.5918V20.9355ZM16.9905 18.4648C16.9905 16.9349 16.7757 15.8216 16.346 15.125C15.9163 14.4219 15.236 14.0703 14.305 14.0703C13.3805 14.0703 12.7067 14.4186 12.2835 15.1152C11.8603 15.8118 11.6422 16.8828 11.6292 18.3281V21.2188C11.6292 22.7552 11.8506 23.8913 12.2933 24.627C12.7425 25.3561 13.4196 25.7207 14.3245 25.7207C15.2165 25.7207 15.8773 25.3757 16.307 24.6855C16.7432 23.9954 16.971 22.9082 16.9905 21.4238V18.4648ZM30.4313 13.7969L24.5427 27H22.6481L28.5173 14.2656H20.822V12.7812H30.4313V13.7969Z" fill="white"/>
</svg>
