<svg width="40" height="40" viewBox="0 0 40 40" fill="none" xmlns="http://www.w3.org/2000/svg">
<circle cx="20" cy="20" r="20" fill="#4F4F4F"/>
<path d="M15.8187 27H14.0023V14.959L10.3597 16.2969V14.6562L15.5355 12.7129H15.8187V27ZM30.568 27H21.2516V25.7012L26.1735 20.2324C26.9027 19.4056 27.404 18.735 27.6774 18.2207C27.9574 17.6999 28.0973 17.1628 28.0973 16.6094C28.0973 15.8672 27.8727 15.2585 27.4235 14.7832C26.9743 14.3079 26.3753 14.0703 25.6266 14.0703C24.7282 14.0703 24.0283 14.3275 23.527 14.8418C23.0322 15.3496 22.7848 16.0592 22.7848 16.9707H20.9782C20.9782 15.6621 21.3981 14.6042 22.238 13.7969C23.0843 12.9896 24.2139 12.5859 25.6266 12.5859C26.9483 12.5859 27.9932 12.9342 28.7614 13.6309C29.5296 14.321 29.9138 15.2422 29.9138 16.3945C29.9138 17.7943 29.0218 19.4609 27.238 21.3945L23.4294 25.5254H30.568V27Z" fill="white"/>
</svg>
